<?xml version="1.0" standalone="no"?>
 <!DOCTYPE svg PUBLIC "-//W3C//DTD SVG 1.1//EN" 
 "http://www.w3.org/Graphics/SVG/1.1/DTD/svg11.dtd"> 
<svg
  xmlns:svg="http://www.w3.org/2000/svg"
  xmlns="http://www.w3.org/2000/svg"
  xmlns:xlink="http://www.w3.org/1999/xlink"
  version="1.1"
  width="297.0022mm" height="210.0072mm" viewBox="0.0000 0.0000 297.0022 210.0072">
<title>SVG Image created as power-In2_Cu.svg date 2025/06/24 02:13:44 </title>
  <desc>Image generated by PCBNEW </desc>
<g style="fill:#000000; fill-opacity:1.0000;stroke:#000000; stroke-opacity:1.0000;
stroke-linecap:round; stroke-linejoin:round;"
 transform="translate(0 0) scale(1 1)">
</g>
<g style="fill:none; 
stroke:#CE7D2C; stroke-width:1.1000; stroke-opacity:1; 
stroke-linecap:round; stroke-linejoin:round;">
<path d="M117.2400 76.3295
L117.2400 75.7045
" />
</g>
<g style="fill:none; 
stroke:#CE7D2C; stroke-width:1.2000; stroke-opacity:1; 
stroke-linecap:round; stroke-linejoin:round;">
<path d="M118.4000 75.6800
L117.3000 75.6800
" />
<path d="M118.4000 84.3200
L117.3000 84.3200
" />
</g>
<g style="fill:none; 
stroke:#CE7D2C; stroke-width:1.1000; stroke-opacity:1; 
stroke-linecap:round; stroke-linejoin:round;">
<path d="M117.2400 83.6705
L117.2400 84.2955
" />
</g>
<g style="fill:none; 
stroke:#CE7D2C; stroke-width:1.3000; stroke-opacity:1; 
stroke-linecap:round; stroke-linejoin:round;">
<path d="M113.4500 84.3200
L112.1500 84.3200
" />
<path d="M113.4500 75.6800
L112.1500 75.6800
" />
</g>
<g style="fill:none; 
stroke:#CE7D2C; stroke-width:1.1000; stroke-opacity:1; 
stroke-linecap:round; stroke-linejoin:round;">
<path d="M127.8045 102.7475
L127.1795 102.7475
" />
</g>
<g style="fill:none; 
stroke:#CE7D2C; stroke-width:1.2000; stroke-opacity:1; 
stroke-linecap:round; stroke-linejoin:round;">
<path d="M127.1550 101.5875
L127.1550 102.6875
" />
<path d="M135.7950 101.5875
L135.7950 102.6875
" />
</g>
<g style="fill:none; 
stroke:#CE7D2C; stroke-width:1.1000; stroke-opacity:1; 
stroke-linecap:round; stroke-linejoin:round;">
<path d="M135.1455 102.7475
L135.7705 102.7475
" />
</g>
<g style="fill:none; 
stroke:#CE7D2C; stroke-width:1.3000; stroke-opacity:1; 
stroke-linecap:round; stroke-linejoin:round;">
<path d="M135.7950 106.5375
L135.7950 107.8375
" />
<path d="M127.1550 106.5375
L127.1550 107.8375
" />
</g>
<g style="fill:#CE7D2C; fill-opacity:1.0000; stroke:none;">
<circle cx="147.8500" cy="96.6700" r="0.1500" /> 
</g>
<g style="fill:#CE7D2C; fill-opacity:1.0000; stroke:none;">
<circle cx="148.5290" cy="96.6700" r="0.1500" /> 
</g>
<g style="fill:#CE7D2C; fill-opacity:1.0000; stroke:none;">
<circle cx="148.5300" cy="95.4700" r="0.1500" /> 
</g>
<g style="fill:#CE7D2C; fill-opacity:1.0000; stroke:none;">
<circle cx="148.5300" cy="94.9700" r="0.1500" /> 
</g>
<g style="fill:#CE7D2C; fill-opacity:1.0000; stroke:none;">
<circle cx="148.5300" cy="94.4700" r="0.1500" /> 
</g>
<g style="fill:#CE7D2C; fill-opacity:1.0000; stroke:none;">
<circle cx="147.5800" cy="95.4300" r="0.1500" /> 
</g>
<g style="fill:#CE7D2C; fill-opacity:1.0000; stroke:none;">
<circle cx="147.5800" cy="94.6100" r="0.1500" /> 
</g>
<g style="fill:#CE7D2C; fill-opacity:1.0000; stroke:none;">
<circle cx="145.0700" cy="95.4700" r="0.1500" /> 
</g>
<g style="fill:#CE7D2C; fill-opacity:1.0000; stroke:none;">
<circle cx="145.0700" cy="94.9700" r="0.1500" /> 
</g>
<g style="fill:#CE7D2C; fill-opacity:1.0000; stroke:none;">
<circle cx="145.0700" cy="94.4700" r="0.1500" /> 
</g>
<g style="fill:#CE7D2C; fill-opacity:1.0000; stroke:none;">
<circle cx="146.0200" cy="95.4300" r="0.1500" /> 
</g>
<g style="fill:#CE7D2C; fill-opacity:1.0000; stroke:none;">
<circle cx="146.0200" cy="94.6100" r="0.1500" /> 
</g>
<g style="fill:#CE7D2C; fill-opacity:1.0000; stroke:none;">
<circle cx="145.0710" cy="96.6700" r="0.1500" /> 
</g>
<g style="fill:#CE7D2C; fill-opacity:1.0000; stroke:none;">
<circle cx="145.7500" cy="96.6700" r="0.1500" /> 
</g>
<g style="fill:#CE7D2C; fill-opacity:1.0000; stroke:none;">
<circle cx="146.8000" cy="98.2500" r="0.1500" /> 
</g>
<g style="fill:#CE7D2C; fill-opacity:1.0000; stroke:none;">
<circle cx="146.8000" cy="97.2500" r="0.1500" /> 
</g>
<g style="fill:#CE7D2C; fill-opacity:1.0000; stroke:none;">
<circle cx="146.8000" cy="96.2500" r="0.1500" /> 
</g>
<g style="fill:#CE7D2C; fill-opacity:1.0000; stroke:none;">
<circle cx="146.8000" cy="95.2500" r="0.1500" /> 
</g>
<g style="fill:#CE7D2C; fill-opacity:1.0000; stroke:none;">
<circle cx="146.8000" cy="94.2500" r="0.1500" /> 
<path style="fill:#CE7D2C; fill-opacity:1.0000; stroke:none;fill-rule:evenodd;"
d="M 141.0800,65.2100
142.7800,65.2100
142.7800,66.9100
141.0800,66.9100
Z" /> 
</g>
<g style="fill:#CE7D2C; fill-opacity:1.0000; stroke:none;">
<circle cx="119.0700" cy="68.6000" r="0.8500" /> 
</g>
<g style="fill:#CE7D2C; fill-opacity:1.0000; stroke:none;">
<circle cx="119.0700" cy="66.0600" r="0.8500" /> 
</g>
<g style="fill:#CE7D2C; fill-opacity:1.0000; stroke:none;">
<circle cx="121.6100" cy="68.6000" r="0.8500" /> 
</g>
<g style="fill:#CE7D2C; fill-opacity:1.0000; stroke:none;">
<circle cx="121.6100" cy="66.0600" r="0.8500" /> 
</g>
<g style="fill:#CE7D2C; fill-opacity:1.0000; stroke:none;">
<circle cx="124.1500" cy="68.6000" r="0.8500" /> 
</g>
<g style="fill:#CE7D2C; fill-opacity:1.0000; stroke:none;">
<circle cx="124.1500" cy="66.0600" r="0.8500" /> 
</g>
<g style="fill:#CE7D2C; fill-opacity:1.0000; stroke:none;">
<circle cx="126.6900" cy="68.6000" r="0.8500" /> 
</g>
<g style="fill:#CE7D2C; fill-opacity:1.0000; stroke:none;">
<circle cx="126.6900" cy="66.0600" r="0.8500" /> 
</g>
<g style="fill:#CE7D2C; fill-opacity:1.0000; stroke:none;">
<circle cx="129.2300" cy="68.6000" r="0.8500" /> 
</g>
<g style="fill:#CE7D2C; fill-opacity:1.0000; stroke:none;">
<circle cx="129.2300" cy="66.0600" r="0.8500" /> 
</g>
<g style="fill:#CE7D2C; fill-opacity:1.0000; stroke:none;">
<circle cx="131.7700" cy="68.6000" r="0.8500" /> 
</g>
<g style="fill:#CE7D2C; fill-opacity:1.0000; stroke:none;">
<circle cx="131.7700" cy="66.0600" r="0.8500" /> 
</g>
<g style="fill:#CE7D2C; fill-opacity:1.0000; stroke:none;">
<circle cx="134.3100" cy="68.6000" r="0.8500" /> 
</g>
<g style="fill:#CE7D2C; fill-opacity:1.0000; stroke:none;">
<circle cx="134.3100" cy="66.0600" r="0.8500" /> 
</g>
<g style="fill:#CE7D2C; fill-opacity:1.0000; stroke:none;">
<circle cx="136.8500" cy="68.6000" r="0.8500" /> 
</g>
<g style="fill:#CE7D2C; fill-opacity:1.0000; stroke:none;">
<circle cx="136.8500" cy="66.0600" r="0.8500" /> 
</g>
<g style="fill:#CE7D2C; fill-opacity:1.0000; stroke:none;">
<circle cx="139.3900" cy="68.6000" r="0.8500" /> 
</g>
<g style="fill:#CE7D2C; fill-opacity:1.0000; stroke:none;">
<circle cx="139.3900" cy="66.0600" r="0.8500" /> 
</g>
<g style="fill:#CE7D2C; fill-opacity:1.0000; stroke:none;">
<circle cx="141.9300" cy="68.6000" r="0.8500" /> 
</g>
<g style="fill:#CE7D2C; fill-opacity:1.0000; stroke:none;">
<circle cx="145.9710" cy="76.6900" r="0.7620" /> 
</g>
<g style="fill:#CE7D2C; fill-opacity:1.0000; stroke:none;">
<circle cx="145.9710" cy="78.8900" r="0.7620" /> 
</g>
<g style="fill:#CE7D2C; fill-opacity:1.0000; stroke:none;">
<circle cx="145.9710" cy="81.0900" r="0.7620" /> 
</g>
<g style="fill:#CE7D2C; fill-opacity:1.0000; stroke:none;">
<circle cx="145.9710" cy="83.2900" r="0.7620" /> 
</g>
<g style="fill:#CE7D2C; fill-opacity:1.0000; stroke:none;">
<circle cx="122.0000" cy="86.7000" r="0.1500" /> 
</g>
<g style="fill:#CE7D2C; fill-opacity:1.0000; stroke:none;">
<circle cx="127.2600" cy="84.9900" r="0.1500" /> 
</g>
<g style="fill:#CE7D2C; fill-opacity:1.0000; stroke:none;">
<circle cx="126.5900" cy="87.8000" r="0.1500" /> 
</g>
<g style="fill:#CE7D2C; fill-opacity:1.0000; stroke:none;">
<circle cx="126.0100" cy="86.6900" r="0.1500" /> 
</g>
<g style="fill:#CE7D2C; fill-opacity:1.0000; stroke:none;">
<circle cx="129.1500" cy="76.6750" r="0.2286" /> 
</g>
<g style="fill:#CE7D2C; fill-opacity:1.0000; stroke:none;">
<circle cx="138.2500" cy="75.1000" r="0.1500" /> 
</g>
<g style="fill:#CE7D2C; fill-opacity:1.0000; stroke:none;">
<circle cx="131.5000" cy="70.5250" r="0.1500" /> 
</g>
<g style="fill:#CE7D2C; fill-opacity:1.0000; stroke:none;">
<circle cx="142.0750" cy="81.1000" r="0.2286" /> 
</g>
<g style="fill:#CE7D2C; fill-opacity:1.0000; stroke:none;">
<circle cx="137.0500" cy="73.9000" r="0.1500" /> 
</g>
<g style="fill:#CE7D2C; fill-opacity:1.0000; stroke:none;">
<circle cx="127.7500" cy="78.9800" r="0.1500" /> 
</g>
<g style="fill:#CE7D2C; fill-opacity:1.0000; stroke:none;">
<circle cx="144.2500" cy="91.2500" r="0.1500" /> 
</g>
<g style="fill:#CE7D2C; fill-opacity:1.0000; stroke:none;">
<circle cx="127.2500" cy="79.5000" r="0.1500" /> 
</g>
<g style="fill:#CE7D2C; fill-opacity:1.0000; stroke:none;">
<circle cx="127.2500" cy="78.5000" r="0.1500" /> 
</g>
<g style="fill:#CE7D2C; fill-opacity:1.0000; stroke:none;">
<circle cx="144.2500" cy="91.7000" r="0.1500" /> 
</g>
<g style="fill:#CE7D2C; fill-opacity:1.0000; stroke:none;">
<circle cx="138.2161" cy="73.9000" r="0.1500" /> 
</g>
<g style="fill:#CE7D2C; fill-opacity:1.0000; stroke:none;">
<circle cx="121.4250" cy="78.4250" r="0.2286" /> 
</g>
<g style="fill:#CE7D2C; fill-opacity:1.0000; stroke:none;">
<circle cx="144.2500" cy="89.8500" r="0.1500" /> 
</g>
<g style="fill:#CE7D2C; fill-opacity:1.0000; stroke:none;">
<circle cx="147.9000" cy="64.7000" r="0.2286" /> 
</g>
<g style="fill:#CE7D2C; fill-opacity:1.0000; stroke:none;">
<circle cx="146.2500" cy="65.7750" r="0.2286" /> 
</g>
<g style="fill:#CE7D2C; fill-opacity:1.0000; stroke:none;">
<circle cx="149.9000" cy="63.7000" r="0.2286" /> 
</g>
<g style="fill:#CE7D2C; fill-opacity:1.0000; stroke:none;">
<circle cx="146.6250" cy="100.3250" r="0.2286" /> 
</g>
<g style="fill:#CE7D2C; fill-opacity:1.0000; stroke:none;">
<circle cx="141.8250" cy="77.9750" r="0.2286" /> 
</g>
<g style="fill:#CE7D2C; fill-opacity:1.0000; stroke:none;">
<circle cx="129.8500" cy="76.3750" r="0.1500" /> 
</g>
<g style="fill:#CE7D2C; fill-opacity:1.0000; stroke:none;">
<circle cx="140.0250" cy="84.9250" r="0.2286" /> 
</g>
<g style="fill:#CE7D2C; fill-opacity:1.0000; stroke:none;">
<circle cx="150.3750" cy="92.9000" r="0.2286" /> 
</g>
<g style="fill:#CE7D2C; fill-opacity:1.0000; stroke:none;">
<circle cx="144.2500" cy="90.8250" r="0.1500" /> 
</g>
<g style="fill:#CE7D2C; fill-opacity:1.0000; stroke:none;">
<circle cx="144.2500" cy="90.2250" r="0.1500" /> 
</g>
<g style="fill:#CE7D2C; fill-opacity:1.0000; stroke:none;">
<circle cx="139.3500" cy="73.9000" r="0.1500" /> 
</g>
<g style="fill:#CE7D2C; fill-opacity:1.0000; stroke:none;">
<circle cx="136.5750" cy="85.4500" r="0.2286" /> 
</g>
<g style="fill:#CE7D2C; fill-opacity:1.0000; stroke:none;">
<circle cx="139.9500" cy="70.5000" r="0.1500" /> 
</g>
<g style="fill:#CE7D2C; fill-opacity:1.0000; stroke:none;">
<circle cx="123.9500" cy="81.8800" r="0.1500" /> 
</g>
<g style="fill:#CE7D2C; fill-opacity:1.0000; stroke:none;">
<circle cx="138.2500" cy="72.7000" r="0.1500" /> 
</g>
<g style="fill:#CE7D2C; fill-opacity:1.0000; stroke:none;">
<circle cx="149.9750" cy="65.9250" r="0.2286" /> 
</g>
<g style="fill:#CE7D2C; fill-opacity:1.0000; stroke:none;">
<circle cx="126.7500" cy="78.9800" r="0.1500" /> 
</g>
<g style="fill:#CE7D2C; fill-opacity:1.0000; stroke:none;">
<circle cx="144.2500" cy="89.4750" r="0.1500" /> 
</g>
<g style="fill:#CE7D2C; fill-opacity:1.0000; stroke:none;">
<circle cx="141.9500" cy="70.5000" r="0.1500" /> 
</g>
<g style="fill:#CE7D2C; fill-opacity:1.0000; stroke:none;">
<circle cx="148.6750" cy="100.5500" r="0.2286" /> 
</g>
<g style="fill:#CE7D2C; fill-opacity:1.0000; stroke:none;">
<circle cx="146.2250" cy="63.8000" r="0.2286" /> 
</g>
<g style="fill:#CE7D2C; fill-opacity:1.0000; stroke:none;">
<circle cx="129.6500" cy="89.1500" r="0.2286" /> 
</g>
<g style="fill:#CE7D2C; fill-opacity:1.0000; stroke:none;">
<circle cx="119.7500" cy="81.6000" r="0.1500" /> 
</g>
<g style="fill:#CE7D2C; fill-opacity:1.0000; stroke:none;">
<circle cx="119.8500" cy="78.5000" r="0.1500" /> 
</g>
<g style="fill:#CE7D2C; fill-opacity:1.0000; stroke:none;">
<circle cx="117.7100" cy="81.3700" r="0.1500" /> 
</g>
<g style="fill:#CE7D2C; fill-opacity:1.0000; stroke:none;">
<circle cx="115.9700" cy="81.3000" r="0.1500" /> 
</g>
<g style="fill:#CE7D2C; fill-opacity:1.0000; stroke:none;">
<circle cx="117.6700" cy="78.6250" r="0.1500" /> 
</g>
<g style="fill:#CE7D2C; fill-opacity:1.0000; stroke:none;">
<circle cx="116.0600" cy="78.3500" r="0.1500" /> 
</g>
<g style="fill:#CE7D2C; fill-opacity:1.0000; stroke:none;">
<circle cx="131.7900" cy="54.9000" r="0.1500" /> 
</g>
<g style="fill:#CE7D2C; fill-opacity:1.0000; stroke:none;">
<circle cx="130.1000" cy="104.0000" r="0.2286" /> 
</g>
<g style="fill:#CE7D2C; fill-opacity:1.0000; stroke:none;">
<circle cx="132.5200" cy="51.6300" r="0.1500" /> 
</g>
<g style="fill:#CE7D2C; fill-opacity:1.0000; stroke:none;">
<circle cx="150.3500" cy="99.5500" r="0.1500" /> 
</g>
<g style="fill:#CE7D2C; fill-opacity:1.0000; stroke:none;">
<circle cx="129.1800" cy="51.5900" r="0.1500" /> 
</g>
<g style="fill:#CE7D2C; fill-opacity:1.0000; stroke:none;">
<circle cx="132.9000" cy="100.4500" r="0.2286" /> 
</g>
<g style="fill:#CE7D2C; fill-opacity:1.0000; stroke:none;">
<circle cx="122.9000" cy="73.8000" r="0.3500" /> 
</g>
<g style="fill:#CE7D2C; fill-opacity:1.0000; stroke:none;">
<circle cx="132.6100" cy="54.3700" r="0.1500" /> 
</g>
<g style="fill:#CE7D2C; fill-opacity:1.0000; stroke:none;">
<circle cx="132.6000" cy="54.9000" r="0.1500" /> 
</g>
<g style="fill:#CE7D2C; fill-opacity:1.0000; stroke:none;">
<circle cx="130.2100" cy="54.9000" r="0.1500" /> 
</g>
<g style="fill:#CE7D2C; fill-opacity:1.0000; stroke:none;">
<circle cx="130.3500" cy="100.5000" r="0.2286" /> 
</g>
<g style="fill:#CE7D2C; fill-opacity:1.0000; stroke:none;">
<circle cx="130.2200" cy="54.3700" r="0.1500" /> 
</g>
<g style="fill:#CE7D2C; fill-opacity:1.0000; stroke:none;">
<circle cx="121.6000" cy="71.8000" r="0.3500" /> 
</g>
<g style="fill:#CE7D2C; fill-opacity:1.0000; stroke:none;">
<circle cx="122.9000" cy="72.8000" r="0.3500" /> 
</g>
<g style="fill:#CE7D2C; fill-opacity:1.0000; stroke:none;">
<circle cx="124.2000" cy="72.8000" r="0.3500" /> 
</g>
<g style="fill:#CE7D2C; fill-opacity:1.0000; stroke:none;">
<circle cx="130.2417" cy="102.2417" r="0.2286" /> 
</g>
<g style="fill:#CE7D2C; fill-opacity:1.0000; stroke:none;">
<circle cx="124.2000" cy="71.8000" r="0.3500" /> 
</g>
<g style="fill:#CE7D2C; fill-opacity:1.0000; stroke:none;">
<circle cx="129.7900" cy="51.5800" r="0.1500" /> 
</g>
<g style="fill:#CE7D2C; fill-opacity:1.0000; stroke:none;">
<circle cx="131.8000" cy="54.3700" r="0.1500" /> 
</g>
<g style="fill:#CE7D2C; fill-opacity:1.0000; stroke:none;">
<circle cx="130.9500" cy="54.9000" r="0.1500" /> 
</g>
<g style="fill:#CE7D2C; fill-opacity:1.0000; stroke:none;">
<circle cx="130.9600" cy="54.3700" r="0.1500" /> 
</g>
<g style="fill:#CE7D2C; fill-opacity:1.0000; stroke:none;">
<circle cx="121.6000" cy="73.8000" r="0.3500" /> 
</g>
<g style="fill:#CE7D2C; fill-opacity:1.0000; stroke:none;">
<circle cx="132.7207" cy="102.2707" r="0.2286" /> 
</g>
<g style="fill:#CE7D2C; fill-opacity:1.0000; stroke:none;">
<circle cx="122.9000" cy="71.8000" r="0.3500" /> 
</g>
<g style="fill:#CE7D2C; fill-opacity:1.0000; stroke:none;">
<circle cx="132.6000" cy="103.8500" r="0.2286" /> 
</g>
<g style="fill:#CE7D2C; fill-opacity:1.0000; stroke:none;">
<circle cx="124.2000" cy="73.8000" r="0.3500" /> 
</g>
<g style="fill:#CE7D2C; fill-opacity:1.0000; stroke:none;">
<circle cx="133.2200" cy="51.6400" r="0.1500" /> 
</g>
<g style="fill:#CE7D2C; fill-opacity:1.0000; stroke:none;">
<circle cx="121.6000" cy="72.8000" r="0.3500" /> 
</g>
<g style="fill:#CE7D2C; fill-opacity:1.0000; stroke:none;">
<circle cx="128.3500" cy="77.2000" r="0.1500" /> 
</g>
<g style="fill:#CE7D2C; fill-opacity:1.0000; stroke:none;">
<circle cx="138.9500" cy="76.7000" r="0.1500" /> 
</g>
<g style="fill:#CE7D2C; fill-opacity:1.0000; stroke:none;">
<circle cx="116.1500" cy="80.6000" r="0.1500" /> 
</g>
<g style="fill:#CE7D2C; fill-opacity:1.0000; stroke:none;">
<circle cx="125.5500" cy="80.7000" r="0.1500" /> 
</g>
<g style="fill:#CE7D2C; fill-opacity:1.0000; stroke:none;">
<circle cx="116.3500" cy="79.1000" r="0.1500" /> 
</g>
<g style="fill:#CE7D2C; fill-opacity:1.0000; stroke:none;">
<circle cx="124.4500" cy="78.8000" r="0.1500" /> 
</g>
<g style="fill:#CE7D2C; fill-opacity:1.0000; stroke:none;">
<circle cx="120.9500" cy="79.5000" r="0.1500" /> 
</g>
<g style="fill:#CE7D2C; fill-opacity:1.0000; stroke:none;">
<circle cx="125.0500" cy="79.5000" r="0.1500" /> 
</g>
<g style="fill:#CE7D2C; fill-opacity:1.0000; stroke:none;">
<circle cx="127.7500" cy="76.7000" r="0.1500" /> 
</g>
<g style="fill:#CE7D2C; fill-opacity:1.0000; stroke:none;">
<circle cx="130.5500" cy="71.5000" r="0.1500" /> 
</g>
<g style="fill:#CE7D2C; fill-opacity:1.0000; stroke:none;">
<circle cx="141.6250" cy="87.2000" r="0.1500" /> 
</g>
<g style="fill:#CE7D2C; fill-opacity:1.0000; stroke:none;">
<circle cx="137.0550" cy="77.8750" r="0.1500" /> 
</g>
<g style="fill:#CE7D2C; fill-opacity:1.0000; stroke:none;">
<circle cx="129.1300" cy="82.1000" r="0.1500" /> 
</g>
<g style="fill:#CE7D2C; fill-opacity:1.0000; stroke:none;">
<circle cx="137.0500" cy="81.3750" r="0.1500" /> 
</g>
<g style="fill:#CE7D2C; fill-opacity:1.0000; stroke:none;">
<circle cx="141.3500" cy="76.4000" r="0.1500" /> 
</g>
<g style="fill:#CE7D2C; fill-opacity:1.0000; stroke:none;">
<circle cx="133.8000" cy="71.7000" r="0.1500" /> 
</g>
<g style="fill:#CE7D2C; fill-opacity:1.0000; stroke:none;">
<circle cx="130.8157" cy="79.5657" r="0.1500" /> 
</g>
<g style="fill:#CE7D2C; fill-opacity:1.0000; stroke:none;">
<circle cx="130.6500" cy="78.9000" r="0.1500" /> 
</g>
<g style="fill:#CE7D2C; fill-opacity:1.0000; stroke:none;">
<circle cx="134.9000" cy="70.5000" r="0.1500" /> 
</g>
<g style="fill:#CE7D2C; fill-opacity:1.0000; stroke:none;">
<circle cx="129.6300" cy="78.5800" r="0.1500" /> 
</g>
<g style="fill:#CE7D2C; fill-opacity:1.0000; stroke:none;">
<circle cx="122.1250" cy="84.8250" r="0.1500" /> 
</g>
<g style="fill:#CE7D2C; fill-opacity:1.0000; stroke:none;">
<circle cx="129.0500" cy="86.2000" r="0.1500" /> 
</g>
<g style="fill:#CE7D2C; fill-opacity:1.0000; stroke:none;">
<circle cx="129.6935" cy="78.0000" r="0.1500" /> 
</g>
<g style="fill:#CE7D2C; fill-opacity:1.0000; stroke:none;">
<circle cx="146.0500" cy="68.7000" r="0.1500" /> 
</g>
<g style="fill:#CE7D2C; fill-opacity:1.0000; stroke:none;">
<circle cx="143.9900" cy="72.6900" r="0.1500" /> 
</g>
<g style="fill:#CE7D2C; fill-opacity:1.0000; stroke:none;">
<circle cx="141.5800" cy="73.1000" r="0.1500" /> 
</g>
<g style="fill:#CE7D2C; fill-opacity:1.0000; stroke:none;">
<circle cx="141.1500" cy="72.6000" r="0.1500" /> 
</g>
<g style="fill:#CE7D2C; fill-opacity:1.0000; stroke:none;">
<circle cx="147.3200" cy="68.8000" r="0.1500" /> 
</g>
<g style="fill:#CE7D2C; fill-opacity:1.0000; stroke:none;">
<circle cx="144.1200" cy="71.5400" r="0.1500" /> 
</g>
<g style="fill:#CE7D2C; fill-opacity:1.0000; stroke:none;">
<circle cx="130.1750" cy="82.9000" r="0.1500" /> 
</g>
<g style="fill:#CE7D2C; fill-opacity:1.0000; stroke:none;">
<circle cx="130.9500" cy="86.2800" r="0.1500" /> 
</g>
<g style="fill:#CE7D2C; fill-opacity:1.0000; stroke:none;">
<circle cx="137.8500" cy="71.2000" r="0.1500" /> 
</g>
<g style="fill:#CE7D2C; fill-opacity:1.0000; stroke:none;">
<circle cx="137.2500" cy="71.1000" r="0.1500" /> 
</g>
<g style="fill:#CE7D2C; fill-opacity:1.0000; stroke:none;">
<circle cx="129.6500" cy="83.5000" r="0.1500" /> 
</g>
<g style="fill:#CE7D2C; fill-opacity:1.0000; stroke:none;">
<circle cx="123.9500" cy="87.3000" r="0.1500" /> 
</g>
<g style="fill:#CE7D2C; fill-opacity:1.0000; stroke:none;">
<circle cx="128.1500" cy="87.3000" r="0.1500" /> 
</g>
<g style="fill:#CE7D2C; fill-opacity:1.0000; stroke:none;">
<circle cx="128.9500" cy="85.3800" r="0.1500" /> 
</g>
<g style="fill:#CE7D2C; fill-opacity:1.0000; stroke:none;">
<circle cx="130.6500" cy="84.6750" r="0.1500" /> 
</g>
<g style="fill:#CE7D2C; fill-opacity:1.0000; stroke:none;">
<circle cx="135.2440" cy="74.6940" r="0.1500" /> 
</g>
<g style="fill:#CE7D2C; fill-opacity:1.0000; stroke:none;">
<circle cx="131.1800" cy="84.0700" r="0.1500" /> 
</g>
<g style="fill:#CE7D2C; fill-opacity:1.0000; stroke:none;">
<circle cx="135.1000" cy="75.5500" r="0.1500" /> 
</g>
<g style="fill:#CE7D2C; fill-opacity:1.0000; stroke:none;">
<circle cx="147.6750" cy="92.0500" r="0.2286" /> 
</g>
<g style="fill:#CE7D2C; fill-opacity:1.0000; stroke:none;">
<circle cx="146.3250" cy="87.8500" r="0.2286" /> 
</g>
<g style="fill:#CE7D2C; fill-opacity:1.0000; stroke:none;">
<circle cx="147.1250" cy="88.5250" r="0.2286" /> 
</g>
<g style="fill:#CE7D2C; fill-opacity:1.0000; stroke:none;">
<circle cx="146.3250" cy="88.5250" r="0.2286" /> 
</g>
<g style="fill:#CE7D2C; fill-opacity:1.0000; stroke:none;">
<circle cx="147.6000" cy="93.0250" r="0.2286" /> 
</g>
<g style="fill:#CE7D2C; fill-opacity:1.0000; stroke:none;">
<circle cx="142.4500" cy="98.5250" r="0.2286" /> 
</g>
<g style="fill:#CE7D2C; fill-opacity:1.0000; stroke:none;">
<circle cx="147.1000" cy="87.8500" r="0.2286" /> 
</g>
<g style="fill:#CE7D2C; fill-opacity:1.0000; stroke:none;">
<circle cx="148.3750" cy="93.0000" r="0.2286" /> 
</g>
<g style="fill:#CE7D2C; fill-opacity:1.0000; stroke:none;">
<circle cx="134.5450" cy="76.9200" r="0.1500" /> 
</g>
<g style="fill:#CE7D2C; fill-opacity:1.0000; stroke:none;">
<circle cx="122.1500" cy="89.1250" r="0.1500" /> 
</g>
<g style="fill:#CE7D2C; fill-opacity:1.0000; stroke:none;">
<circle cx="125.0000" cy="84.0000" r="0.1500" /> 
</g>
<g style="fill:#CE7D2C; fill-opacity:1.0000; stroke:none;">
<circle cx="150.3500" cy="97.2750" r="0.1500" /> 
</g>
<g style="fill:#CE7D2C; fill-opacity:1.0000; stroke:none;">
<circle cx="120.1500" cy="79.9000" r="0.1500" /> 
</g>
<g style="fill:#CE7D2C; fill-opacity:1.0000; stroke:none;">
<circle cx="121.2750" cy="82.2750" r="0.1500" /> 
</g>
<g style="fill:#CE7D2C; fill-opacity:1.0000; stroke:none;">
<circle cx="121.3000" cy="83.0800" r="0.1500" /> 
</g>
<g style="fill:#CE7D2C; fill-opacity:1.0000; stroke:none;">
<circle cx="119.5500" cy="80.4000" r="0.1500" /> 
</g>
<g style="fill:#CE7D2C; fill-opacity:1.0000; stroke:none;">
<circle cx="116.1906" cy="79.7376" r="0.1500" /> 
</g>
<g style="fill:none; 
stroke:#CE7D2C; stroke-width:0.2000; stroke-opacity:1; 
stroke-linecap:round; stroke-linejoin:round;">
<path d="M120.7250 80.3750
L120.2500 79.9000
" />
<path d="M120.2500 79.9000
L120.1500 79.9000
" />
<path d="M121.2750 82.2750
L120.7250 81.7250
" />
<path d="M120.7250 81.7250
L120.7250 80.3750
" />
<path d="M120.3500 82.1300
L120.3500 80.8000
" />
<path d="M120.3500 80.8000
L119.9376 80.3876
" />
<path d="M119.9376 80.3876
L119.5624 80.3876
" />
<path d="M119.5624 80.3876
L119.5500 80.4000
" />
<path d="M121.3000 83.0800
L120.3500 82.1300
" />
<path style="fill:#CE7D2C; fill-opacity:1.0000; stroke:none;fill-rule:evenodd;"
d="M 146.3944,93.9197
146.4402,93.9725
146.4514,94.0226
146.4531,94.1727
146.4533,94.1897
146.4495,94.2039
146.4495,94.2961
146.4547,94.3156
146.4549,94.3312
146.4640,95.1320
146.4598,95.1655
146.4495,95.2039
146.4495,95.2039
146.4495,95.2961
146.4625,95.3448
146.4668,95.3755
146.4736,95.9746
146.4547,96.0418
146.4024,96.0882
146.3496,96.1000
146.0250,96.1000
146.0250,96.7260
146.0053,96.7930
145.9525,96.8388
145.9010,96.8500
144.9219,96.8500
144.8549,96.8303
144.8091,96.7775
144.7979,96.7281
144.7521,94.0261
144.7707,93.9587
144.8227,93.9121
144.8761,93.9000
146.3274,93.9000
Z" /> 
<path style="fill:#CE7D2C; fill-opacity:1.0000; stroke:none;fill-rule:evenodd;"
d="M 147.6374,86.4447
147.6832,86.4975
147.6926,86.5281
148.6022,91.8530
148.8732,93.4396
148.8750,93.4605
148.8750,95.9991
148.8553,96.0662
148.8025,96.1119
148.7491,96.1231
147.3221,96.1018
147.2554,96.0811
147.2104,96.0277
147.2000,95.9778
147.2000,95.4914
147.2166,95.4294
147.2198,95.4239
147.2505,95.3093
147.2505,95.1907
147.2198,95.0761
147.2166,95.0706
147.2000,95.0086
147.2000,94.4914
147.2166,94.4294
147.2198,94.4239
147.2505,94.3093
147.2505,94.1907
147.2198,94.0761
147.2166,94.0706
147.2000,94.0086
147.2000,93.4250
145.8812,91.9352
145.8515,91.8719
145.8500,91.8530
145.8500,86.5490
145.8697,86.4820
145.9225,86.4362
145.9740,86.4250
147.5704,86.4250
Z" /> 
</g> 
</svg>
